<?xml version="1.0" standalone="no"?>
<svg viewBox="0 0 200 200" xmlns="http://www.w3.org/2000/svg">
  <path fill="#00010D" d="M36.2,-67.3C44.1,-58.1,45.9,-42.8,48.2,-30.6C50.5,-18.4,53.4,-9.2,58.2,2.8C63,14.7,69.8,29.5,65.6,38.5C61.5,47.6,46.5,51.1,33.8,60.1C21,69.1,10.5,83.7,-1.1,85.7C-12.7,87.6,-25.5,76.9,-37.4,67.4C-49.3,57.9,-60.4,49.6,-68.2,38.6C-76,27.5,-80.6,13.8,-76.1,2.6C-71.6,-8.6,-58.2,-17.2,-50.6,-28.6C-43,-40.1,-41.3,-54.3,-33.8,-63.9C-26.4,-73.4,-13.2,-78.2,0.5,-79C14.1,-79.8,28.2,-76.6,36.2,-67.3Z" transform="translate(100 100)" />
</svg>
